<?xml version="1.0"?>
<svg xmlns="http://www.w3.org/2000/svg" height="512px" viewBox="-1 0 512 512.00143" width="512px" class=""><g><path d="m500.742188 107.394531c-12.292969-57.171875-31.351563-97.210937-32.15625-98.886719-3.308594-6.890624-11.273438-10.191406-18.488282-7.65625-1.410156.492188-34.996094 12.402344-77.308594 37.648438-34.917968 20.839844-81.847656 54.675781-117.367187 101.890625-7.894531-10.515625-16.636719-20.765625-26.203125-30.710937-21.363281-22.203126-46.871094-42.941407-75.824219-61.644532-49.117187-31.734375-90.902343-46.566406-92.660156-47.183594-7.210937-2.535156-15.175781.765626-18.488281 7.65625-.804688 1.675782-19.863282 41.714844-32.15625 98.886719-7.242188 33.695313-10.617188 66.398438-10.0234378 97.203125.7499998 38.941406 7.8749998 74.960938 21.1679688 107.054688 13.296875 32.097656 33.730469 62.605468 60.734375 90.671875 21.359375 22.199219 46.871094 42.941406 75.820312 61.644531 49.117188 31.734375 90.902344 46.570312 92.660157 47.1875 1.605469.5625 3.285156.84375 4.964843.84375 1.679688 0 3.359376-.28125 4.96875-.84375 1.753907-.617188 43.542969-15.453125 92.660157-47.1875 28.949219-18.703125 54.457031-39.445312 75.820312-61.644531 27.003907-28.066407 47.4375-58.574219 60.730469-90.671875 13.296875-32.09375 20.417969-68.113282 21.167969-107.054688.597656-30.804687-2.777344-63.507812-10.019531-97.203125zm-451.789063 192.78125c-26.90625-64.953125-20.117187-136.863281-9.6875-185.753906 7.574219-35.507813 18.128906-64.410156 24.496094-80.101563 34.066406 14.4375 127 59.503907 178.785156 140.066407.148437.25.308594.5.472656.742187 7.34375 11.507813 13.84375 23.734375 19.214844 36.699219 37.355469 90.191406 10.980469 193.699219-7.078125 245.34375l-133.359375-321.957031c-3.167969-7.652344-11.945313-11.289063-19.597656-8.117188-7.652344 3.171875-11.289063 11.945313-8.117188 19.601563l133.355469 321.949219c-15.042969-7.238282-33.960938-17.296876-53.988281-30.277344-41.945313-27.195313-97.59375-73.246094-124.496094-138.195313zm412.925781 0c-26.902344 64.949219-82.550781 111-124.496094 138.195313-20.027343 12.984375-38.9375 23.035156-53.984374 30.273437l148.632812-358.839843c3.171875-7.652344-.464844-16.429688-8.117188-19.597657-7.65625-3.167969-16.429687.464844-19.597656 8.117188l-93.203125 225.015625c1.117188-45.0625-5.949219-86.257813-21.164062-122.992188-4.695313-11.332031-10.28125-22.472656-16.730469-33.371094 32.953125-47.597656 79.914062-81.742187 114.347656-102.355468 24.636719-14.75 46.40625-24.78125 59.5-30.3125 6.367188 15.6875 16.921875 44.597656 24.5 80.113281 10.429688 48.890625 17.21875 120.800781-9.6875 185.753906zm0 0" data-original="#000000" class="active-path" data-old_color="#000000" fill="#00B050"/></g> </svg>
