<?xml version="1.0"?>
<svg xmlns="http://www.w3.org/2000/svg" height="512px" viewBox="0 0 192 192" width="512px"><g><g id="_10-bomb" data-name="10-bomb"><path d="m150.845 36.422c-.885 1.769-2.39 3.578-6.845 3.578-3.362 0-5.561-3.139-9.775-10.3-5.39-9.158-12.77-21.7-30.225-21.7-9.52 0-14.6 4.559-17.194 8.383-5.92 8.745-4.221 22.044-1.776 31.617h-5.03a8 8 0 0 0 -8 8v12.671a64 64 0 1 0 48 0v-12.671a8 8 0 0 0 -8-8h-10.333c-2.578-8.372-4.211-18.808-1.612-22.646.274-.406.917-1.354 3.945-1.354 7.92 0 11.243 4.992 16.436 13.814 4.764 8.103 10.701 18.186 23.564 18.186 17.608 0 24-14.353 24-24h-16a12.319 12.319 0 0 1 -1.155 4.422zm-41.128 45.578a48 48 0 1 1 -27.434 0 8 8 0 0 0 5.717-7.668v-10.332h16v10.332a8 8 0 0 0 5.717 7.668z" data-original="#000000" class="active-path" data-old_color="#000000" fill="#00B050"/><path d="m164.686 8h22.627v16h-22.627z" transform="matrix(.707 -.707 .707 .707 40.235 129.137)" data-original="#000000" class="active-path" data-old_color="#000000" fill="#00B050"/><path d="m176 32h16v16h-16z" data-original="#000000" class="active-path" data-old_color="#000000" fill="#00B050"/><circle cx="120" cy="144" r="8" data-original="#000000" class="active-path" data-old_color="#000000" fill="#00B050"/></g></g> </svg>
