<?xml version="1.0"?>
<svg xmlns="http://www.w3.org/2000/svg" height="512px" viewBox="1 -87 511.99898 511" width="512px" class=""><g><path d="m509.175781 117.425781-59.039062-83.136719c-2.867188-4.039062-7.511719-6.4375-12.460938-6.4375h-102.796875v-12.066406c0-8.441406-6.84375-15.285156-15.285156-15.285156h-304.308594c-8.441406 0-15.285156 6.84375-15.285156 15.285156v256.3125c0 8.441406 6.84375 15.285156 15.285156 15.285156h29.3125c4.914063 27.894532 29.679688 49.3125 58.136719 49.3125s53.21875-21.417968 58.132813-49.3125h189.152343c4.914063 27.894532 29.679688 49.3125 58.136719 49.3125s53.21875-21.417968 58.132812-49.3125h30.425782c8.441406 0 15.285156-6.84375 15.285156-15.285156v-145.824218c0-3.171876-.988281-6.261719-2.824219-8.847657zm-27.746093 36.238281h-75.460938v-43.589843h59.417969c.351562 0 .695312-.027344 1.039062-.050781l15.003907 21.125zm-450.859376-122.597656h273.742188v225.75h-145.886719c-9.25-26.601562-36.792969-43.417968-64.675781-39.128906-21.632812 3.328125-39.53125 18.484375-46.710938 39.128906h-16.46875zm72.164063 275.058594c-17.609375 0-30.746094-16.6875-28.167969-33.777344 2.085938-13.800781 14.101563-24.78125 28.167969-24.78125 14.058594 0 26.070313 10.972656 28.160156 24.765625 2.59375 17.089844-10.542969 33.792969-28.160156 33.792969zm305.421875 0c-17.613281 0-30.753906-16.703125-28.164062-33.792969 2.09375-13.792969 14.105468-24.765625 28.164062-24.765625s26.070312 10.976563 28.160156 24.765625c2.59375 17.089844-10.542968 33.792969-28.160156 33.792969zm55.695312-49.308594c-8.164062-23.480468-30.785156-39.820312-55.695312-39.820312s-47.53125 16.339844-55.695312 39.820312h-17.582032v-198.394531h94.90625l14.972656 21.085937h-54.070312c-8.441406 0-15.285156 6.839844-15.285156 15.28125v74.160157c0 8.441406 6.84375 15.285156 15.285156 15.285156h90.746094v72.582031zm0 0" data-original="#000000" class="active-path" data-old_color="#000000" fill="#00B050"/></g> </svg>
