<?xml version="1.0"?>
<svg xmlns="http://www.w3.org/2000/svg" height="512px" viewBox="-91 0 512 512" width="512px"><g><path d="m215.992188 123.246094c3.976562-26.023438 8.480468-44.285156 8.558593-44.609375 1.121094-4.480469.113281-9.226563-2.726562-12.867188-2.84375-3.640625-7.207031-5.769531-11.824219-5.769531h-15v-45c0-8.285156-6.714844-15-15-15h-60c-8.285156 0-15 6.714844-15 15v45h-60c-6.996094 0-13.160156 4.789062-14.71875 11.609375-1.554688 6.800781 1.691406 13.730469 7.957031 16.78125 24.695313 13.199219 51.761719 50.667969 51.761719 106.609375 0 21.398438-16.019531 39.996094-34.570312 61.53125-24.695313 28.671875-55.429688 64.351562-55.429688 119.46875 0 41.355469 17.402344 77.910156 50.320312 105.710938 24.363282 20.570312 48.769532 29.117187 49.792969 29.472656 1.574219.539062 3.222657.816406 4.886719.816406h90c1.664062 0 3.3125-.277344 4.886719-.816406 1.023437-.355469 25.429687-8.902344 49.792969-29.472656 32.917968-27.800782 50.320312-64.355469 50.320312-105.710938 0-33.898438-11.632812-60.4375-26.328125-82.519531 33.296875-13.417969 56.328125-46.023438 56.328125-83.480469 0-49.625-40.375-90-90-90-8.195312 0-16.253906 1.105469-24.007812 3.246094zm-80.992188-93.246094h30v30h-30zm56.351562 60c-2.878906 14.367188-6.617187 35.804688-9 60h-67.5c-6.445312-26.550781-18.054687-46.125-29.589843-60zm39.707032 368.164062c-16.355469 14.007813-33.0625 21.492188-38.832032 23.835938h-84.449218c-5.808594-2.359375-22.5-9.84375-38.835938-23.835938-25.839844-22.136718-38.941406-49.78125-38.941406-82.164062 0-43.976562 24.484375-72.398438 48.160156-99.886719 20.570313-23.882812 41.839844-48.574219 41.839844-81.113281 0-5.179688-.191406-10.183594-.539062-15.011719h60.824218c-.183594 4.972657-.285156 9.992188-.285156 15.011719 0 32.539062 21.269531 57.230469 41.839844 81.113281 23.675781 27.488281 48.160156 55.910157 48.160156 99.886719 0 32.382812-13.101562 60.027344-38.941406 82.164062zm68.941406-248.164062c0 27.855469-19.09375 51.6875-45.472656 58.222656-3.367188-4.035156-6.714844-7.925781-9.957032-11.691406-18.550781-21.535156-34.570312-40.132812-34.570312-61.53125 0-12.832031.722656-25.71875 1.84375-38 8.625-4.59375 18.238281-7 28.15625-7 33.085938 0 60 26.914062 60 60zm0 0" data-original="#000000" class="active-path" data-old_color="#000000" fill="#00B050"/></g> </svg>
