<?xml version="1.0"?>
<svg xmlns="http://www.w3.org/2000/svg" height="512px" viewBox="-20 0 512 512" width="512px"><g><path d="m460.855469 249.722656c17.703125-17.847656 13.023437-50.347656-10.695313-74.070312-23.769531-23.765625-56.347656-28.421875-74.171875-10.597656l-.003906-.003907-16.335937 16.339844v-106.464844c0-16.113281-10.085938-38.992187-58.144532-56.46875-32.730468-11.902343-75.945312-18.457031-121.679687-18.457031s-88.949219 6.554688-121.679688 18.457031c-48.058593 17.476563-58.144531 40.355469-58.144531 56.46875v380.699219l4.21875 4.355469c16.589844 17.144531 42.011719 30.476562 75.554688 39.628906 29.71875 8.105469 64.316406 12.390625 100.050781 12.390625s70.332031-4.285156 100.050781-12.390625c33.546875-9.152344 58.964844-22.484375 75.558594-39.628906l4.210937-4.351563.0625-102.839844 101.019531-102.933593c.007813-.011719.019532-.019531.027344-.027344.015625-.015625.027344-.03125.042969-.046875zm-57.128907-65.535156c6.566407 0 16.285157 3.703125 25.242188 12.65625 12.933594 12.9375 14.914062 27.46875 10.59375 31.789062-4.320312 4.320313-18.851562 2.339844-31.789062-10.59375-12.9375-12.9375-14.917969-27.46875-10.597657-31.789062 1.332031-1.332031 3.628907-2.0625 6.550781-2.0625zm-335.339843-137.5625c29.53125-10.738281 69.109375-16.652344 111.4375-16.652344s81.90625 5.914063 111.4375 16.652344c26.539062 9.648438 38.417969 21.164062 38.417969 28.300781s-11.878907 18.65625-38.417969 28.304688c-29.53125 10.738281-69.109375 16.652343-111.4375 16.652343-5.289063 0-10.539063-.09375-15.730469-.273437-36.335938-1.28125-69.867188-6.980469-95.707031-16.378906-26.539063-9.648438-38.414063-21.167969-38.414063-28.304688 0-7.132812 11.875-18.652343 38.414063-28.300781zm-38.417969 71.582031c13.25 8.011719 27.785156 13.5625 42.605469 17.894531 4.128906 1.207032 47.308593 10.144532 47.308593 9.8125v67.5c-29.25 6.632813-44.457031 32.613282-44.457031 58.320313s15.207031 51.6875 44.457031 58.324219v147.421875c-10.523437-1.660157-20.5625-3.75-29.96875-6.234375v-124.585938h-29.972656v114.425782c-12.070312-5.195313-22.238281-11.226563-29.96875-17.953126-2.460937-2.140624 0-21.613281 0-24.691406 0-20.757812 0-41.515625 0-62.273437 0-53.273438 0-106.542969 0-159.816407 0-26 .78125-52.226562-.054687-78.175781.015625.011719.035156.019531.050781.03125zm299.773438 222.324219-.0625 102.59375c-10.679688 9.300781-26.03125 17.265625-44.625 23.535156v-269.851562h-29.972657v277.878906c-14.121093 2.9375-29.34375 5.058594-45.285156 6.242188v-174.894532h-29.972656v175.992188c-10.195313 0-20.214844-.375-29.96875-1.097656v-179.222657h-14.988281c-21.75 0-29.46875-16.148437-29.46875-29.972656s7.71875-29.96875 29.46875-29.96875h14.988281v-92.867187c9.804687.628906 19.824219.957031 29.96875.957031 50.042969 0 104.976562-4.78125 148.878906-31.074219.320313-.191406.660156-.382812.976563-.578125v135.542969l39.84375-39.847656c3.566406 8.839843 9.28125 17.558593 17.058593 25.332031 7.878907 7.882812 16.726563 13.65625 25.683594 17.214843zm0 0" data-original="#000000" class="active-path" data-old_color="#000000" fill="#00B050"/><path d="m146.855469 61.941406h59.941406v29.96875h-59.941406zm0 0" data-original="#000000" class="active-path" data-old_color="#000000" fill="#00B050"/></g> </svg>
