<?xml version="1.0"?>
<svg xmlns="http://www.w3.org/2000/svg" height="512px" viewBox="0 0 512 512.00125" width="512px"><g><path d="m512 44.980469c0-12.019531-4.679688-23.320313-13.179688-31.820313-17.546874-17.546875-46.101562-17.546875-63.644531 0l-22.546875 22.550782c-20.875-9.207032-44.253906-12.648438-66.976562-9.675782-27.464844 3.589844-52.355469 15.863282-71.984375 35.492188l-70.710938 70.710937c-12.585937 12.582031-21.910156 27.207031-27.996093 42.8125-16.109376 6.277344-30.453126 15.640625-42.71875 27.902344l-70.714844 70.714844c-19.628906 19.628906-31.902344 44.519531-35.492188 71.984375-2.972656 22.726562.46875 46.101562 9.675782 66.976562l-22.550782 22.546875c-17.546875 17.546875-17.546875 46.097657 0 63.644531 8.5 8.5 19.800782 13.179688 31.820313 13.179688 12.023437 0 23.324219-4.679688 31.820312-13.179688l22.539063-22.539062c15.972656 7.042969 33.40625 10.707031 50.898437 10.707031 5.371094 0 10.75-.34375 16.089844-1.042969 27.464844-3.589843 52.355469-15.863281 71.980469-35.492187l70.714844-70.714844c12.582031-12.582031 21.910156-27.203125 27.996093-42.808593 16.109375-6.277344 30.457031-15.640626 42.71875-27.902344l70.714844-70.714844c19.628906-19.628906 31.902344-44.519531 35.492187-71.984375 2.972657-22.726563-.46875-46.101563-9.675781-66.976563l22.550781-22.546874c8.5-8.5 13.179688-19.800782 13.179688-31.824219zm-202.976562 157.972656c-8.46875-8.46875-17.945313-15.546875-28.304688-21.191406l50.734375-50.734375c-.164063 1.566406-.25 3.152344-.25 4.746094 0 12.023437 4.679687 23.324218 13.179687 31.824218s19.800782 13.179688 31.820313 13.179688c1.597656 0 3.183594-.089844 4.75-.25l-50.710937 50.710937c-5.558594-10.152343-12.628907-19.695312-21.21875-28.285156zm-141.425782 141.429687c-8.5-8.5-19.800781-13.183593-31.824218-13.183593-1.597657 0-3.179688.089843-4.746094.253906l50.710937-50.710937c5.558594 10.152343 12.628907 19.695312 21.214844 28.28125 8.472656 8.472656 17.945313 15.550781 28.308594 21.195312l-50.765625 50.765625c1.382812-13.058594-2.910156-26.613281-12.898438-36.601563zm56.570313-190.929687 70.714843-70.714844c24.9375-24.9375 61.5625-33.5625 94.453126-23.738281l-26.089844 26.089844c-17.710938-.394532-34.554688 6.269531-47.148438 18.863281l-70.714844 70.714844c-.585937.585937-1.097656 1.214843-1.566406 1.867187-.042968.046875-.085937.085938-.128906.132813-23.742188 25.738281-22.996094 65.238281 1.691406 89.929687.191406.191406 2.121094 2.710938 2.277344 2.902344 8.851562 10.945312 10.167969 25.613281 4.261719 37.507812-10.355469-4.679687-19.660157-11.105468-27.75-19.195312-37.042969-37.042969-37.042969-97.316406 0-134.359375zm-141.429688 141.429687 70.714844-70.714843c4.089844-4.089844 8.492187-7.75 13.175781-10.980469-.734375 12.378906.355469 24.84375 3.277344 36.957031l-65.953125 65.953125c-12.597656 12.597656-19.261719 29.449219-18.863281 47.148438l-26.089844 26.089844c-9.824219-32.894532-1.199219-69.515626 23.738281-94.453126zm-27.148437 182.722657c-5.847656 5.847656-15.363282 5.851562-21.214844 0-5.851562-5.847657-5.851562-15.367188 0-21.214844l90.792969-90.792969c2.835937-2.835937 6.601562-4.394531 10.609375-4.394531 4.003906 0 7.773437 1.558594 10.605468 4.394531 5.847657 5.847656 5.847657 15.363282 0 21.214844zm232.222656-119.078125-70.714844 70.714844c-24.941406 24.9375-61.558594 33.5625-94.457031 23.738281l26.09375-26.089844c17.660156.398437 34.550781-6.269531 47.148437-18.863281l70.714844-70.714844c23.316406-23.316406 25.335938-60.226562 4.820313-86.136719-.140625-.183593-3.242188-4.214843-4.820313-5.792969-10.910156-10.90625-13.101562-27.210937-6.429687-40.371093 10.3125 4.675781 19.578125 11.09375 27.644531 19.15625 37.039062 37.042969 37.039062 97.316406 0 134.359375zm141.425781-141.429688-70.714843 70.714844c-4.089844 4.089844-8.488282 7.75-13.171876 10.980469.730469-12.378907-.355468-24.84375-3.28125-36.957031l65.957032-65.953126c12.597656-12.597656 19.261718-29.453124 18.859375-47.148437l26.09375-26.089844c9.824219 32.890625 1.199219 69.515625-23.742188 94.453125zm48.367188-161.507812-90.792969 90.792968c-5.851562 5.847657-15.363281 5.851563-21.214844 0-2.835937-2.832031-4.394531-6.601562-4.394531-10.605468 0-4.007813 1.558594-7.773438 4.394531-10.609375l90.792969-90.792969c2.925781-2.921875 6.765625-4.386719 10.609375-4.386719 3.839844 0 7.679688 1.464844 10.605469 4.386719 5.847656 5.847656 5.847656 15.367188 0 21.214844zm0 0" data-original="#000000" class="active-path" data-old_color="#000000" fill="#00B050"/></g> </svg>
