<?xml version="1.0"?>
<svg xmlns="http://www.w3.org/2000/svg" height="512px" viewBox="0 0 383.9851 383" width="512px"><g><path d="m277.46875 5.179688c-6.242188-6.25-16.386719-6.25-22.625 0-6.25 6.246093-6.25 16.375 0 22.621093l11.320312 11.320313-75.535156 75.539062-152.515625 32.109375c-17.253906 3.632813-31.09375 16.386719-36.117187 33.296875-5.023438 16.902344-.402344 35.152344 12.070312 47.617188l142.730469 142.726562c9.132813 9.144532 21.382813 14.0625 33.925781 14.0625 4.570313 0 9.175782-.652344 13.6875-2 16.90625-5.023437 29.664063-18.863281 33.296875-36.117187l32.113281-152.511719 75.535157-75.539062 11.320312 11.320312c3.121094 3.128906 7.214844 4.691406 11.3125 4.691406 4.09375 0 8.191407-1.5625 11.3125-4.691406 6.246094-6.246094 6.246094-16.375 0-22.621094zm-71.074219 334.582031c-1.777343 8.417969-8.351562 11.226562-11.09375 12.039062-2.753906.816407-9.792969 2.058594-15.875-4.023437l-142.734375-142.726563c-6.082031-6.082031-4.839844-13.128906-4.023437-15.871093.816406-2.746094 3.625-9.328126 12.039062-11.097657l4.441407-.933593 26.222656 11.917968c16.511718 7.472656 34.726562 11.425782 52.6875 11.425782 17.96875 0 35.441406 5.015624 50.585937 14.542968l9.757813 6.078125c12.199218 7.601563 25.640625 13.058594 39.5625 16.21875zm37.390625-165.144531c-.324218.328124-.558594.699218-.855468 1.042968-.34375.414063-.71875.796875-1.023438 1.246094-.445312.648438-.792969 1.335938-1.128906 2.03125-.109375.226562-.246094.425781-.34375.65625-.496094 1.144531-.847656 2.320312-1.0625 3.527344l-4.808594 22.847656c-10.253906-2.367188-20.0625-6.316406-29.238281-12.03125l-9.695313-6.039062c-20.203125-12.695313-43.570312-19.40625-67.570312-19.40625-7.808594 0-15.664063-1.113282-23.320313-3.058594l96.601563-20.335938c1.207031-.214844 2.390625-.574218 3.535156-1.0625.214844-.089844.398438-.222656.609375-.320312.710937-.34375 1.414063-.703125 2.078125-1.160156.425781-.289063.785156-.632813 1.167969-.960938.367187-.3125.769531-.558594 1.113281-.910156l78.933594-78.9375 33.9375 33.9375zm0 0" data-original="#000000" class="active-path" data-old_color="#000000" fill="#00B050"/></g> </svg>
