<?xml version="1.0"?>
<svg xmlns="http://www.w3.org/2000/svg" id="Capa_1" enable-background="new 0 0 512 512" height="512px" viewBox="0 0 512 512" width="512px"><g><path d="m407 362c-24.813 0-45 20.187-45 45s20.187 45 45 45 45-20.187 45-45-20.187-45-45-45zm0 60c-8.271 0-15-6.729-15-15s6.729-15 15-15 15 6.729 15 15-6.729 15-15 15z" data-original="#000000" class="active-path" data-old_color="#000000" fill="#00B050"/><path d="m407 0c-57.897 0-105 47.103-105 105v17h-173.213l-128.787 128.787v261.213h407c57.897 0 105-47.103 105-105v-302c0-57.897-47.103-105-105-105zm-287 173.213v68.787h-68.787zm-90 308.787v-210h120v-120h152v255c0 29.354 12.113 55.927 31.596 75zm377 0c-41.355 0-75-33.645-75-75s33.645-75 75-75 75 33.645 75 75-33.645 75-75 75zm0-180c-29.354 0-55.927 12.113-75 31.596v-228.596c0-41.355 33.645-75 75-75s75 33.645 75 75v228.596c-19.073-19.483-45.646-31.596-75-31.596z" data-original="#000000" class="active-path" data-old_color="#000000" fill="#00B050"/></g> </svg>
