<?xml version="1.0"?>
<svg xmlns="http://www.w3.org/2000/svg" id="Capa_1" enable-background="new 0 0 512.252 512.252" height="512px" viewBox="0 0 512.252 512.252" width="512px"><g><g><path d="m363.39 87.822-118.757 90.173-14.058 67.769-13.927-33.6-108.192-70.802-33.01 113.659 64.05 257.231h268.681l28.63-295.631zm28.607 110.767-15.687-3.207-.742-25.616zm-47.314-58.894 1.435 49.516-52.51-10.734zm-48.555 342.557h-51.172l-79.54-233.022 30.44-8.881zm-127.026-265.349-56.1 16.367 12.954-44.602zm-60.086 48.781 27.572-8.044 76.669 224.612h-50.316zm141.979 29.343 18.833-90.791 75.115 15.356-30.448 228.631zm129.947 187.225h-40.712l34.177-256.638 30.78 6.292z" data-original="#000000" class="active-path" data-old_color="#000000" fill="#00B050"/><path d="m170.642 11.314h30v58.669h-30z" transform="matrix(.687 -.727 .727 .687 28.552 147.597)" data-original="#000000" class="active-path" data-old_color="#000000" fill="#00B050"/><path d="m243.179 0h30v50.805h-30z" data-original="#000000" class="active-path" data-old_color="#000000" fill="#00B050"/><path d="m301.383 25.649h58.669v30h-58.669z" transform="matrix(.727 -.687 .687 .727 62.502 238.352)" data-original="#000000" class="active-path" data-old_color="#000000" fill="#00B050"/></g></g> </svg>
